<?xml version="1.0" encoding="UTF-8"?>
<!DOCTYPE svg PUBLIC "-//W3C//DTD SVG 1.1//EN" "http://www.w3.org/Graphics/SVG/1.1/DTD/svg11.dtd">
<!-- Creator: CorelDRAW -->
<svg xmlns="http://www.w3.org/2000/svg" xml:space="preserve" width="2.97558in" height="0.280567in" version="1.1" shape-rendering="geometricPrecision" text-rendering="geometricPrecision" image-rendering="optimizeQuality" fill-rule="evenodd" clip-rule="evenodd"
viewBox="0 0 2258 213"
 xmlns:xlink="http://www.w3.org/1999/xlink"
 xmlns:xodm="http://www.corel.com/coreldraw/odm/2003">
 <g id="Layer_x0020_1">
  <metadata id="CorelCorpID_0Corel-Layer"/>
  <path fill="#373435" d="M2258 29l0 92c0,51 -41,92 -92,92l-2074 0c-51,0 -92,-41 -92,-92l0 -92 2258 0z"/>
  <path fill="#909083" d="M1924 213l-1583 0c0,-82 67,-149 149,-149l1286 0c82,0 149,67 149,149z"/>
  <g id="_2909076727104">
   <circle fill="#FFF212" stroke="#373435" stroke-width="5" stroke-miterlimit="2.61313" transform="matrix(3.45283E-14 1.30371 -1.30371 3.45283E-14 1244.85 35.471)" r="25"/>
   <circle fill="#FFF212" stroke="#373435" stroke-width="5" stroke-miterlimit="2.61313" transform="matrix(3.45283E-14 1.30371 -1.30371 3.45283E-14 1131.6 35.471)" r="25"/>
   <circle fill="#FFF212" stroke="#373435" stroke-width="5" stroke-miterlimit="2.61313" transform="matrix(3.45283E-14 1.30371 -1.30371 3.45283E-14 1018.36 35.471)" r="25"/>
  </g>
  <g id="_2909076728064">
   <path fill="#ED3237" d="M2251 118l0 5c0,45 -38,82 -86,82l-145 0c36,-54 105,-90 184,-90 16,0 31,1 46,4z"/>
   <path fill="#FFF212" d="M2251 116l0 2c0,23 -20,42 -44,42l-74 0c18,-28 54,-46 94,-46 8,0 16,1 23,2z"/>
  </g>
  <g id="_2909076732624">
   <path fill="#ED3237" d="M9 118l0 5c0,45 38,82 86,82l145 0c-36,-54 -105,-90 -184,-90 -16,0 -31,1 -46,4z"/>
   <path fill="#FFF212" d="M9 116l0 2c0,23 20,42 44,42l74 0c-18,-28 -54,-46 -94,-46 -8,0 -16,1 -23,2z"/>
  </g>
 </g>
</svg>
