<?xml version="1.0" encoding="UTF-8"?>
<!DOCTYPE svg PUBLIC "-//W3C//DTD SVG 1.1//EN" "http://www.w3.org/Graphics/SVG/1.1/DTD/svg11.dtd">
<!-- Creator: CorelDRAW -->
<svg xmlns="http://www.w3.org/2000/svg" xml:space="preserve" width="1.39666in" height="2.97558in" version="1.1" shape-rendering="geometricPrecision" text-rendering="geometricPrecision" image-rendering="optimizeQuality" fill-rule="evenodd" clip-rule="evenodd"
viewBox="0 0 206 438"
 xmlns:xlink="http://www.w3.org/1999/xlink"
 xmlns:xodm="http://www.corel.com/coreldraw/odm/2003">
 <g id="Layer_x0020_1">
  <metadata id="CorelCorpID_0Corel-Layer"/>
  <rect fill="#F3F1E4" x="50" width="153" height="437"/>
  <polygon fill="#D5D0BA" points="168,0 206,0 206,437 202,437 202,293 183,274 183,154 168,154 "/>
  <path fill="#373435" d="M61 0l-23 0c-49,50 -52,369 -1,438l24 0c-41,-69 -39,-388 1,-438z"/>
  <path fill="#E6E7E8" d="M48 0l-10 0c-11,11 -19,35 -25,66 1,0 2,0 3,0 13,0 27,-29 32,-64 0,-1 0,-2 0,-2z"/>
  <path fill="#D5D0BA" d="M89 0l-29 0c-39,50 -42,369 -1,438l15 0c8,-10 28,-30 28,-30 3,-22 0,-44 -2,-63 -2,-22 4,-43 2,-64 -3,-26 -25,-40 -28,-65 -11,-73 -2,-153 16,-216z"/>
  <path fill="#FFE461" d="M111 368l0 -46c0,-7 6,-13 13,-13l60 0 0 71 -60 0c-7,0 -13,-6 -13,-13z"/>
  <path fill="#373435" stroke="#373435" stroke-width="1" stroke-miterlimit="2.61313" d="M138 380c0,-2 2,-4 4,-4l38 0 0 -9c-2,-1 -3,-4 -3,-6l0 -33c0,-3 1,-5 3,-6l0 -9 -38 0c-2,0 -4,-2 -4,-4 0,-2 2,-4 4,-4l42 0c2,0 4,2 4,4l0 13c2,1 3,4 3,6l0 33c0,3 -1,5 -3,6l0 13c0,2 -2,4 -4,4l-42 0c-2,0 -4,-2 -4,-4z"/>
  <path fill="#B2B09F" d="M102 280l0 0c2,22 -4,42 -2,64 2,19 5,41 2,63 0,0 -1,1 -1,1 -60,-21 -45,-131 1,-129z"/>
  <path fill="#373435" stroke="#373435" stroke-width="1" stroke-miterlimit="2.61313" d="M93 293c15,0 26,23 26,51 0,28 -12,51 -26,51 -15,0 -26,-23 -26,-51 0,-28 12,-51 26,-51zm-1 61l7 35c-2,1 -4,2 -6,2 -13,0 -23,-21 -23,-46 0,-25 10,-46 23,-46 2,0 4,1 6,2l-6 33c-3,0 -6,5 -6,10 0,5 2,9 5,10zm8 34l5 -5c-2,2 -3,4 -5,5zm7 -9l-11 -26c2,-2 3,-5 3,-9 0,-3 -1,-6 -2,-8l11 -25c5,8 8,21 8,34 0,14 -3,26 -8,34z"/>
  <path fill="#E6E7E8" d="M47 438l-10 0c-10,-11 -18,-35 -24,-66 1,0 2,0 3,0 13,0 27,29 31,64 0,1 0,2 0,2z"/>
 </g>
</svg>
