<?xml version="1.0" encoding="UTF-8"?>
<!DOCTYPE svg PUBLIC "-//W3C//DTD SVG 1.1//EN" "http://www.w3.org/Graphics/SVG/1.1/DTD/svg11.dtd">
<!-- Creator: CorelDRAW -->
<svg xmlns="http://www.w3.org/2000/svg" xml:space="preserve" width="2.97558in" height="1.39666in" version="1.1" shape-rendering="geometricPrecision" text-rendering="geometricPrecision" image-rendering="optimizeQuality" fill-rule="evenodd" clip-rule="evenodd"
viewBox="0 0 2035 955"
 xmlns:xlink="http://www.w3.org/1999/xlink"
 xmlns:xodm="http://www.corel.com/coreldraw/odm/2003">
 <g id="Layer_x0020_1">
  <metadata id="CorelCorpID_0Corel-Layer"/>
  <rect fill="#F3F1E4" transform="matrix(2.64845E-14 1 -1 2.64845E-14 2035.26 230.065)" width="709" height="2032"/>
  <polygon fill="#D5D0BA" points="2035,779 2035,955 4,955 4,939 673,939 763,849 1319,849 1319,779 "/>
  <path fill="#373435" d="M2035 284l0 -109c-232,-226 -1715,-241 -2035,-3l0 109c320,-192 1803,-181 2035,2z"/>
  <path fill="#E6E7E8" d="M2035 221l0 -45c-51,-49 -161,-89 -306,-117 -1,4 -2,9 -2,13 0,61 133,128 297,148 4,0 7,1 11,1z"/>
  <path fill="#D5D0BA" d="M2035 415l0 -136c-232,-183 -1715,-195 -2035,-2l0 68c47,35 141,132 141,132 101,15 206,-1 294,-10 103,-11 198,18 299,8 120,-13 184,-115 300,-132 338,-49 710,-9 1001,73z"/>
  <path fill="#FFE461" d="M328 516l213 0c33,0 59,27 59,59l0 280 -331 0 0 -280c0,-33 27,-59 59,-59z"/>
  <path fill="#373435" stroke="#373435" stroke-width="5" stroke-miterlimit="2.61313" d="M269 641c10,0 19,8 19,19l0 176 41 0c6,-10 17,-16 30,-16l152 0c12,0 23,6 30,16l41 0 0 -176c0,-10 8,-19 19,-19 10,0 19,8 19,19l0 195c0,10 -8,19 -19,19l-60 0c-6,10 -17,16 -30,16l-152 0c-12,0 -23,-6 -30,-16l-60 0c-10,0 -19,-8 -19,-19l0 -195c0,-10 8,-19 19,-19z"/>
  <path fill="#B2B09F" d="M735 473l-1 0c-101,11 -196,-19 -299,-8 -88,10 -193,25 -294,10 0,0 -2,-3 -7,-7 98,-276 607,-208 601,4z"/>
  <path fill="#373435" stroke="#373435" stroke-width="5" stroke-miterlimit="2.61313" d="M673 433c0,68 -107,122 -238,122 -132,0 -238,-55 -238,-122 0,-68 107,-122 238,-122 132,0 238,55 238,122zm-281 -6l-162 31c-6,-9 -9,-19 -9,-30 0,-58 96,-105 213,-105 118,0 213,47 213,105 0,10 -3,20 -8,29l-154 -28c-2,-14 -22,-26 -47,-26 -23,0 -43,10 -47,23zm-158 37l24 23c-10,-7 -18,-15 -24,-23zm42 34l123 -53c8,8 23,14 40,14 16,0 29,-4 38,-11l118 50c-39,22 -96,35 -159,35 -63,0 -120,-14 -159,-35z"/>
  <path fill="#E6E7E8" d="M0 218l0 -45c51,-48 161,-86 306,-112 1,4 2,9 2,13 0,61 -133,125 -297,143 -4,0 -7,1 -11,1z"/>
 </g>
</svg>
