<svg xmlns="http://www.w3.org/2000/svg" xmlns:xlink="http://www.w3.org/1999/xlink">
  <defs>
    <symbol id="bus-seat" fill="currentColor" viewBox="319.799 143.8897 96 94.2628">
      <path
        d="M 324.251 152.684 C 348.638 151.51 373.092 151.51 397.479 152.684 C 398.795 152.747 399.672 154.849 399.718 156.318 C 400.426 179.197 400.426 202.118 399.718 224.997 C 399.672 226.466 398.795 228.568 397.479 228.631 C 373.092 229.805 348.638 229.805 324.251 228.631 C 322.935 228.568 322.057 226.466 322.011 224.997 C 321.303 202.118 321.303 179.197 322.011 156.318 C 322.057 154.849 322.935 152.747 324.251 152.684 Z"
        fill="currentColor" />
      <path
        d="M 415.799 159.56 C 415.496 148.594 408.84 143.443 399.269 143.92 L 353.799 143.92 C 349.621 143.902 345.988 146.78 345.049 150.85 L 326.949 150.85 C 323.023 150.888 319.847 154.055 319.799 157.98 L 319.799 223.77 C 319.831 227.681 323.038 230.82 326.949 230.77 L 344.949 230.77 C 345.719 234.992 349.408 238.052 353.699 238.03 L 399.269 238.03 C 403.848 238.757 415.32 236.553 415.799 223.13 L 415.799 159.56 Z M 345.079 227.72 L 326.949 227.72 C 324.735 227.754 322.916 225.983 322.889 223.77 L 322.889 157.98 C 322.888 155.747 324.716 153.947 326.949 153.98 L 344.949 153.98 C 345.628 158.285 349.34 161.454 353.699 161.45 L 397.879 161.45 L 397.879 220.68 L 353.799 220.68 C 349.559 220.572 345.867 223.553 345.079 227.72 Z"
        fill="#222222" />
    </symbol>
    <symbol id="start" fill="currentColor" viewBox="0 0 384 512">
      <path
        d="M73 39c-14.8-9.1-33.4-9.4-48.5-.9S0 62.6 0 80V432c0 17.4 9.4 33.4 24.5 41.9s33.7 8.1 48.5-.9L361 297c14.3-8.7 23-24.2 23-41s-8.7-32.2-23-41L73 39z" />
    </symbol>
    <symbol id="end" fill="currentColor" viewBox="0 0 320 512">
      <path
        d="M52.5 440.6c-9.5 7.9-22.8 9.7-34.1 4.4S0 428.4 0 416V96C0 83.6 7.2 72.3 18.4 67s24.5-3.6 34.1 4.4l192 160L256 241V96c0-17.7 14.3-32 32-32s32 14.3 32 32V416c0 17.7-14.3 32-32 32s-32-14.3-32-32V271l-11.5 9.6-192 160z" />
    </symbol>

    <symbol id="seat" fill="currentColor" viewBox="0 0 548 551">
      <path fill="currentColor" d="M118 0l311 0c48,0 87,39 87,87l0 409 -485 0 0 -409c0,-48 39,-87 87,-87z" />
      <path fill="var(--color-2,#373435)" stroke="#373435" stroke-width="8" stroke-miterlimit="2.61313"
        d="M31 183c15,0 28,12 28,28l0 257 60 0c9,-14 25,-24 43,-24l223 0c18,0 34,9 43,24l60 0 0 -257c0,-15 12,-28 28,-28 15,0 28,12 28,28l0 285c0,15 -12,28 -28,28l-88 0c-9,14 -25,24 -43,24l-223 0c-18,0 -34,-9 -43,-24l-88 0c-15,0 -28,-12 -28,-28l0 -285c0,-15 12,-28 28,-28z" />
    </symbol>
  </defs>
</svg>
