<svg viewBox="0 0 548 551" xmlns="http://www.w3.org/2000/svg" fill="currentColor">
  <path fill="currentColor" d="M118 0l311 0c48,0 87,39 87,87l0 409 -485 0 0 -409c0,-48 39,-87 87,-87z" />
  <path fill="var(--color-2,#373435)" stroke="#373435" stroke-width="8" stroke-miterlimit="2.61313"
    d="M31 183c15,0 28,12 28,28l0 257 60 0c9,-14 25,-24 43,-24l223 0c18,0 34,9 43,24l60 0 0 -257c0,-15 12,-28 28,-28 15,0 28,12 28,28l0 285c0,15 -12,28 -28,28l-88 0c-9,14 -25,24 -43,24l-223 0c-18,0 -34,-9 -43,-24l-88 0c-15,0 -28,-12 -28,-28l0 -285c0,-15 12,-28 28,-28z" />
</svg>